<svg width="2211" height="1251" xmlns="http://www.w3.org/2000/svg" xmlns:xlink="http://www.w3.org/1999/xlink" overflow="hidden"><defs><clipPath id="clip0"><rect x="1539" y="64" width="2211" height="1251"/></clipPath><clipPath id="clip1"><rect x="1540" y="64" width="2208" height="1249"/></clipPath><clipPath id="clip2"><rect x="1540" y="64" width="2208" height="1249"/></clipPath><clipPath id="clip3"><rect x="1540" y="64" width="2208" height="1249"/></clipPath><clipPath id="clip4"><rect x="1540" y="64" width="2208" height="1249"/></clipPath><clipPath id="clip5"><rect x="1776" y="233" width="1880" height="852"/></clipPath><clipPath id="clip6"><rect x="1540" y="64" width="2208" height="1249"/></clipPath><clipPath id="clip7"><rect x="1540" y="64" width="2208" height="1249"/></clipPath><clipPath id="clip8"><rect x="1540" y="64" width="2208" height="1249"/></clipPath><clipPath id="clip9"><rect x="1540" y="64" width="2208" height="1249"/></clipPath><clipPath id="clip10"><rect x="1540" y="64" width="2208" height="1249"/></clipPath><clipPath id="clip11"><rect x="1540" y="64" width="2208" height="1249"/></clipPath><clipPath id="clip12"><rect x="1540" y="64" width="2208" height="1249"/></clipPath><clipPath id="clip13"><rect x="1540" y="64" width="2208" height="1249"/></clipPath><clipPath id="clip14"><rect x="1540" y="64" width="2208" height="1249"/></clipPath><clipPath id="clip15"><rect x="1540" y="64" width="2208" height="1249"/></clipPath><clipPath id="clip16"><rect x="1540" y="64" width="2208" height="1249"/></clipPath><clipPath id="clip17"><rect x="1540" y="64" width="2208" height="1249"/></clipPath><clipPath id="clip18"><rect x="1540" y="64" width="2208" height="1249"/></clipPath><clipPath id="clip19"><rect x="1540" y="64" width="2208" height="1249"/></clipPath><clipPath id="clip20"><rect x="1540" y="64" width="2208" height="1249"/></clipPath><clipPath id="clip21"><rect x="1540" y="64" width="2208" height="1249"/></clipPath><clipPath id="clip22"><rect x="1540" y="64" width="2208" height="1249"/></clipPath><clipPath id="clip23"><rect x="1540" y="64" width="2208" height="1249"/></clipPath></defs><g clip-path="url(#clip0)" transform="translate(-1539 -64)"><rect x="1540" y="65" width="2208" height="1248" fill="#FFFFFF"/><g clip-path="url(#clip1)"><path d="M1776.5 978.532 3656.5 978.532M1776.5 872.529 3656.5 872.529M1776.5 765.525 3656.5 765.525M1776.5 659.522 3656.5 659.522M1776.5 552.518 3656.5 552.518M1776.5 446.515 3656.5 446.515M1776.5 339.511 3656.5 339.511M1776.5 233.5 3656.5 233.5" stroke="#D9D9D9" stroke-width="3.4375" stroke-linejoin="round" stroke-miterlimit="10" fill="none"/></g><g clip-path="url(#clip2)"><path d="M1776.5 233.5 1776.5 1085.5M2152.57 233.5 2152.57 1085.5M2528.58 233.5 2528.58 1085.5M2904.6 233.5 2904.6 1085.5M3280.61 233.5 3280.61 1085.5M3656.5 233.5 3656.5 1085.5" stroke="#D9D9D9" stroke-width="3.4375" stroke-linejoin="round" stroke-miterlimit="10" fill="none"/></g><g clip-path="url(#clip3)"><path d="M1776.5 1085.5 3656.5 1085.5" stroke="#D9D9D9" stroke-width="3.4375" stroke-linejoin="round" stroke-miterlimit="10" fill="none" fill-rule="evenodd"/></g><g clip-path="url(#clip4)"><path d="M1787.5 233.205C1787.5 239.28 1782.57 244.205 1776.5 244.205 1770.42 244.205 1765.5 239.28 1765.5 233.205 1765.5 227.13 1770.42 222.206 1776.5 222.206 1782.57 222.206 1787.5 227.13 1787.5 233.205Z" stroke="#FFC000" stroke-width="3.4375" stroke-linejoin="round" stroke-miterlimit="10" fill="#FFC000"/><path d="M1899.5 740.205C1899.5 746.28 1894.57 751.205 1888.5 751.205 1882.42 751.205 1877.5 746.28 1877.5 740.205 1877.5 734.131 1882.42 729.206 1888.5 729.206 1894.57 729.206 1899.5 734.131 1899.5 740.205Z" stroke="#FFC000" stroke-width="3.4375" stroke-linejoin="round" stroke-miterlimit="10" fill="#FFC000"/><path d="M2012.5 945.206C2012.5 951.281 2007.57 956.205 2001.5 956.205 1995.42 956.205 1990.5 951.281 1990.5 945.206 1990.5 939.131 1995.42 934.206 2001.5 934.206 2007.57 934.206 2012.5 939.131 2012.5 945.206Z" stroke="#FFC000" stroke-width="3.4375" stroke-linejoin="round" stroke-miterlimit="10" fill="#FFC000"/><path d="M2125.5 1028.21C2125.5 1034.28 2120.57 1039.21 2114.5 1039.21 2108.42 1039.21 2103.5 1034.28 2103.5 1028.21 2103.5 1022.13 2108.42 1017.21 2114.5 1017.21 2120.57 1017.21 2125.5 1022.13 2125.5 1028.21Z" stroke="#FFC000" stroke-width="3.4375" stroke-linejoin="round" stroke-miterlimit="10" fill="#FFC000"/><path d="M2238.5 1062.21C2238.5 1068.28 2233.57 1073.21 2227.5 1073.21 2221.42 1073.21 2216.5 1068.28 2216.5 1062.21 2216.5 1056.13 2221.42 1051.21 2227.5 1051.21 2233.57 1051.21 2238.5 1056.13 2238.5 1062.21Z" stroke="#FFC000" stroke-width="3.4375" stroke-linejoin="round" stroke-miterlimit="10" fill="#FFC000"/><path d="M2351.5 1076.21C2351.5 1082.28 2346.57 1087.21 2340.5 1087.21 2334.42 1087.21 2329.5 1082.28 2329.5 1076.21 2329.5 1070.13 2334.42 1065.21 2340.5 1065.21 2346.57 1065.21 2351.5 1070.13 2351.5 1076.21Z" stroke="#FFC000" stroke-width="3.4375" stroke-linejoin="round" stroke-miterlimit="10" fill="#FFC000"/><path d="M2464.5 1081.21C2464.5 1087.28 2459.57 1092.21 2453.5 1092.21 2447.42 1092.21 2442.5 1087.28 2442.5 1081.21 2442.5 1075.13 2447.42 1070.21 2453.5 1070.21 2459.57 1070.21 2464.5 1075.13 2464.5 1081.21Z" stroke="#FFC000" stroke-width="3.4375" stroke-linejoin="round" stroke-miterlimit="10" fill="#FFC000"/><path d="M2576.5 1083.21C2576.5 1089.28 2571.57 1094.21 2565.5 1094.21 2559.42 1094.21 2554.5 1089.28 2554.5 1083.21 2554.5 1077.13 2559.42 1072.21 2565.5 1072.21 2571.57 1072.21 2576.5 1077.13 2576.5 1083.21Z" stroke="#FFC000" stroke-width="3.4375" stroke-linejoin="round" stroke-miterlimit="10" fill="#FFC000"/><path d="M2689.5 1084.21C2689.5 1090.28 2684.57 1095.21 2678.5 1095.21 2672.42 1095.21 2667.5 1090.28 2667.5 1084.21 2667.5 1078.13 2672.42 1073.21 2678.5 1073.21 2684.57 1073.21 2689.5 1078.13 2689.5 1084.21Z" stroke="#FFC000" stroke-width="3.4375" stroke-linejoin="round" stroke-miterlimit="10" fill="#FFC000"/><path d="M2802.5 1085.21C2802.5 1091.28 2797.57 1096.21 2791.5 1096.21 2785.42 1096.21 2780.5 1091.28 2780.5 1085.21 2780.5 1079.13 2785.42 1074.21 2791.5 1074.21 2797.57 1074.21 2802.5 1079.13 2802.5 1085.21Z" stroke="#FFC000" stroke-width="3.4375" stroke-linejoin="round" stroke-miterlimit="10" fill="#FFC000"/><path d="M2915.5 1085.21C2915.5 1091.28 2910.57 1096.21 2904.5 1096.21 2898.42 1096.21 2893.5 1091.28 2893.5 1085.21 2893.5 1079.13 2898.42 1074.21 2904.5 1074.21 2910.57 1074.21 2915.5 1079.13 2915.5 1085.21Z" stroke="#FFC000" stroke-width="3.4375" stroke-linejoin="round" stroke-miterlimit="10" fill="#FFC000"/><path d="M3028.5 1085.21C3028.5 1091.28 3023.57 1096.21 3017.5 1096.21 3011.42 1096.21 3006.5 1091.28 3006.5 1085.21 3006.5 1079.13 3011.42 1074.21 3017.5 1074.21 3023.57 1074.21 3028.5 1079.13 3028.5 1085.21Z" stroke="#FFC000" stroke-width="3.4375" stroke-linejoin="round" stroke-miterlimit="10" fill="#FFC000"/><path d="M3141.5 1085.21C3141.5 1091.28 3136.57 1096.21 3130.5 1096.21 3124.42 1096.21 3119.5 1091.28 3119.5 1085.21 3119.5 1079.13 3124.42 1074.21 3130.5 1074.21 3136.57 1074.21 3141.5 1079.13 3141.5 1085.21Z" stroke="#FFC000" stroke-width="3.4375" stroke-linejoin="round" stroke-miterlimit="10" fill="#FFC000"/><path d="M3253.5 1085.21C3253.5 1091.28 3248.57 1096.21 3242.5 1096.21 3236.42 1096.21 3231.5 1091.28 3231.5 1085.21 3231.5 1079.13 3236.42 1074.21 3242.5 1074.21 3248.57 1074.21 3253.5 1079.13 3253.5 1085.21Z" stroke="#FFC000" stroke-width="3.4375" stroke-linejoin="round" stroke-miterlimit="10" fill="#FFC000"/><path d="M3366.5 1085.21C3366.5 1091.28 3361.57 1096.21 3355.5 1096.21 3349.42 1096.21 3344.5 1091.28 3344.5 1085.21 3344.5 1079.13 3349.42 1074.21 3355.5 1074.21 3361.57 1074.21 3366.5 1079.13 3366.5 1085.21Z" stroke="#FFC000" stroke-width="3.4375" stroke-linejoin="round" stroke-miterlimit="10" fill="#FFC000"/><path d="M3479.5 1085.21C3479.5 1091.28 3474.57 1096.21 3468.5 1096.21 3462.42 1096.21 3457.5 1091.28 3457.5 1085.21 3457.5 1079.13 3462.42 1074.21 3468.5 1074.21 3474.57 1074.21 3479.5 1079.13 3479.5 1085.21Z" stroke="#FFC000" stroke-width="3.4375" stroke-linejoin="round" stroke-miterlimit="10" fill="#FFC000"/></g><g clip-path="url(#clip5)"><path d="M1776.5 233.5 1779.56 253.508 1782.56 274.509 1785.56 294.51 1788.56 313.51 1791.56 332.511 1794.56 350.512 1797.56 368.512 1800.56 386.513 1803.56 403.513 1806.56 420.514 1810.56 436.515 1813.56 452.515 1816.56 467.516 1819.56 483.516 1822.56 497.517 1825.56 512.517 1828.56 526.517 1831.56 539.518 1834.56 553.518 1837.56 566.519 1841.56 578.519 1844.56 591.52 1847.56 603.52 1850.56 615.52 1853.56 626.521 1856.56 638.521 1859.56 648.521 1862.56 659.522 1865.56 670.522 1868.56 680.523 1871.56 690.523 1875.56 699.523 1878.56 709.523 1881.56 718.524 1884.56 727.524 1887.56 736.524 1890.56 744.525 1893.56 753.525 1896.56 761.525 1899.56 769.525 1902.56 776.526 1905.56 784.526 1909.56 791.526 1912.56 799.526 1915.56 806.527 1918.56 812.527 1921.56 819.527 1924.56 826.527 1927.56 832.527 1930.56 838.528 1933.56 844.528 1936.56 850.528 1940.56 856.528 1943.56 861.528 1946.56 867.529 1949.56 872.529 1952.56 877.529 1955.56 883.529 1958.56 887.529 1961.56 892.529 1964.56 897.53 1967.56 902.53 1970.56 906.53 1974.56 911.53 1977.57 915.53 1980.57 919.53 1983.57 923.531 1986.57 927.531 1989.57 931.531 1992.57 935.531 1995.57 938.531 1998.57 942.531 2001.57 945.531 2004.57 949.531 2008.57 952.531 2011.57 955.531 2014.57 959.532 2017.57 962.532 2020.57 965.532 2023.57 968.532 2026.57 970.532 2029.57 973.532 2032.57 976.532 2035.57 979.532 2039.57 981.532 2042.57 984.532 2045.57 986.533 2048.57 989.533 2051.57 991.533 2054.57 993.533 2057.57 996.533 2060.57 998.533 2063.57 1000.53 2066.57 1002.53 2069.57 1004.53 2073.57 1006.53 2076.57 1008.53 2079.57 1010.53 2082.57 1012.53 2085.57 1013.53 2088.57 1015.53 2091.57 1017.53 2094.57 1019.53 2097.57 1020.53 2100.57 1022.53 2103.57 1023.53 2107.57 1025.53 2110.57 1026.53 2113.57 1028.53 2116.57 1029.53 2119.57 1031.53 2122.57 1032.53 2125.57 1033.53 2128.57 1034.53 2131.57 1036.53 2134.57 1037.53 2138.57 1038.53 2141.57 1039.53 2144.57 1040.53 2147.57 1041.53 2150.57 1042.53 2153.57 1044.53 2156.57 1045.53 2159.57 1046.53 2162.57 1046.53 2165.57 1047.53 2168.57 1048.53 2172.57 1049.53 2175.57 1050.53 2178.57 1051.53 2181.57 1052.53 2184.57 1053.53 2187.57 1053.53 2190.57 1054.53 2193.57 1055.53 2196.57 1056.53 2199.57 1056.53 2202.57 1057.53 2206.57 1058.53 2209.57 1058.53 2212.57 1059.53 2215.57 1060.54 2218.57 1060.54 2221.57 1061.54 2224.57 1062.54 2227.57 1062.54 2230.57 1063.54 2233.57 1063.54 2237.57 1064.54 2240.57 1064.54 2243.57 1065.54 2246.57 1065.54 2249.57 1066.54 2252.57 1066.54 2255.57 1067.54 2258.57 1067.54 2261.57 1068.54 2264.57 1068.54 2267.57 1068.54 2271.57 1069.54 2274.57 1069.54 2277.57 1070.54 2280.57 1070.54 2283.58 1070.54 2286.58 1071.54 2289.58 1071.54 2292.58 1071.54 2295.58 1072.54 2298.58 1072.54 2302.58 1072.54 2305.58 1073.54 2308.58 1073.54 2311.58 1073.54 2314.58 1074.54 2317.58 1074.54 2320.58 1074.54 2323.58 1074.54 2326.58 1075.54 2329.58 1075.54 2332.58 1075.54 2336.58 1075.54 2339.58 1076.54 2342.58 1076.54 2345.58 1076.54 2348.58 1076.54 2351.58 1076.54 2354.58 1077.54 2357.58 1077.54 2360.58 1077.54 2363.58 1077.54 2366.58 1077.54 2370.58 1078.54 2373.58 1078.54 2376.58 1078.54 2379.58 1078.54 2382.58 1078.54 2385.58 1078.54 2388.58 1079.54 2391.58 1079.54 2394.58 1079.54 2397.58 1079.54 2401.58 1079.54 2404.58 1079.54 2407.58 1080.54 2410.58 1080.54 2413.58 1080.54 2416.58 1080.54 2419.58 1080.54 2422.58 1080.54 2425.58 1080.54 2428.58 1080.54 2431.58 1080.54 2435.58 1081.54 2438.58 1081.54 2441.58 1081.54 2444.58 1081.54 2447.58 1081.54 2450.58 1081.54 2453.58 1081.54 2456.58 1081.54 2459.58 1081.54 2462.58 1081.54 2465.58 1082.54 2469.58 1082.54 2472.58 1082.54 2475.58 1082.54 2478.58 1082.54 2481.58 1082.54 2484.58 1082.54 2487.58 1082.54 2490.58 1082.54 2493.58 1082.54 2496.58 1082.54 2500.58 1082.54 2503.58 1082.54 2506.58 1082.54 2509.58 1083.54 2512.58 1083.54 2515.58 1083.54 2518.58 1083.54 2521.58 1083.54 2524.58 1083.54 2527.58 1083.54 2530.58 1083.54 2534.58 1083.54 2537.58 1083.54 2540.58 1083.54 2543.58 1083.54 2546.58 1083.54 2549.58 1083.54 2552.58 1083.54 2555.58 1083.54 2558.58 1083.54 2561.58 1083.54 2564.58 1083.54 2568.58 1083.54 2571.58 1083.54 2574.58 1084.54 2577.58 1084.54 2580.58 1084.54 2583.58 1084.54 2586.58 1084.54 2589.59 1084.54 2592.59 1084.54 2595.59 1084.54 2599.59 1084.54 2602.59 1084.54 2605.59 1084.54 2608.59 1084.54 2611.59 1084.54 2614.59 1084.54 2617.59 1084.54 2620.59 1084.54 2623.59 1084.54 2626.59 1084.54 2629.59 1084.54 2633.59 1084.54 2636.59 1084.54 2639.59 1084.54 2642.59 1084.54 2645.59 1084.54 2648.59 1084.54 2651.59 1084.54 2654.59 1084.54 2657.59 1084.54 2660.59 1084.54 2663.59 1084.54 2667.59 1084.54 2670.59 1084.54 2673.59 1084.54 2676.59 1084.54 2679.59 1084.54 2682.59 1084.54 2685.59 1084.54 2688.59 1084.54 2691.59 1084.54 2694.59 1084.54 2698.59 1084.54 2701.59 1084.54 2704.59 1084.54 2707.59 1084.54 2710.59 1084.54 2713.59 1084.54 2716.59 1084.54 2719.59 1085.54 2722.59 1085.54 2725.59 1085.54 2728.59 1085.54 2732.59 1085.54 2735.59 1085.54 2738.59 1085.54 2741.59 1085.54 2744.59 1085.54 2747.59 1085.54 2750.59 1085.54 2753.59 1085.54 2756.59 1085.54 2759.59 1085.54 2762.59 1085.54 2766.59 1085.54 2769.59 1085.54 2772.59 1085.54 2775.59 1085.54 2778.59 1085.54 2781.59 1085.54 2784.59 1085.54 2787.59 1085.54 2790.59 1085.54 2793.59 1085.54 2797.59 1085.54 2800.59 1085.54 2803.59 1085.54 2806.59 1085.54 2809.59 1085.54 2812.59 1085.54 2815.59 1085.54 2818.59 1085.54 2821.59 1085.54 2824.59 1085.54 2827.59 1085.54 2831.59 1085.54 2834.59 1085.54 2837.59 1085.54 2840.59 1085.54 2843.59 1085.54 2846.59 1085.54 2849.59 1085.54 2852.59 1085.54 2855.59 1085.54 2858.59 1085.54 2862.59 1085.54 2865.59 1085.54 2868.59 1085.54 2871.59 1085.54 2874.59 1085.54 2877.59 1085.54 2880.59 1085.54 2883.59 1085.54 2886.59 1085.54 2889.59 1085.54 2892.6 1085.54 2896.6 1085.54 2899.6 1085.54 2902.6 1085.54 2905.6 1085.54 2908.6 1085.54 2911.6 1085.54 2914.6 1085.54 2917.6 1085.54 2920.6 1085.54 2923.6 1085.54 2926.6 1085.54 2930.6 1085.54 2933.6 1085.54 2936.6 1085.54 2939.6 1085.54 2942.6 1085.54 2945.6 1085.54 2948.6 1085.54 2951.6 1085.54 2954.6 1085.54 2957.6 1085.54 2961.6 1085.54 2964.6 1085.54 2967.6 1085.54 2970.6 1085.54 2973.6 1085.54 2976.6 1085.54 2979.6 1085.54 2982.6 1085.54 2985.6 1085.54 2988.6 1085.54 2991.6 1085.54 2995.6 1085.54 2998.6 1085.54 3001.6 1085.54 3004.6 1085.54 3007.6 1085.54 3010.6 1085.54 3013.6 1085.54 3016.6 1085.54 3019.6 1085.54 3022.6 1085.54 3025.6 1085.54 3029.6 1085.54 3032.6 1085.54 3035.6 1085.54 3038.6 1085.54 3041.6 1085.54 3044.6 1085.54 3047.6 1085.54 3050.6 1085.54 3053.6 1085.54 3056.6 1085.54 3060.6 1085.54 3063.6 1085.54 3066.6 1085.54 3069.6 1085.54 3072.6 1085.54 3075.6 1085.54 3078.6 1085.54 3081.6 1085.54 3084.6 1085.54 3087.6 1085.54 3090.6 1085.54 3094.6 1085.54 3097.6 1085.54 3100.6 1085.54 3103.6 1085.54 3106.6 1085.54 3109.6 1085.54 3112.6 1085.54 3115.6 1085.54 3118.6 1085.54 3121.6 1085.54 3124.6 1085.54 3128.6 1085.54 3131.6 1085.54 3134.6 1085.54 3137.6 1085.54 3140.6 1085.54 3143.6 1085.54 3146.6 1085.54 3149.6 1085.54 3152.6 1085.54 3155.6 1085.54 3159.6 1085.54 3165.6 1085.54 3168.6 1085.54 3171.6 1085.54 3174.6 1085.54 3177.6 1085.54 3183.6 1085.54 3186.6 1085.54 3189.6 1085.54 3196.6 1085.54 3199.6 1085.54 3205.61 1085.54 3208.61 1085.54 3214.61 1085.54 3220.61 1085.54 3227.61 1085.54 3233.61 1085.54 3239.61 1085.54 3245.61 1085.54 3251.61 1085.54 3258.61 1085.54 3267.61 1085.54 3276.61 1085.54 3285.61 1085.54 3295.61 1085.54 3304.61 1085.54 3316.61 1085.54 3329.61 1085.54 3341.61 1085.54 3357.61 1085.54 3375.61 1085.54 3397.61 1085.54 3422.61 1085.54 3453.5 1085.5" stroke="#FFC000" stroke-width="6.875" stroke-linecap="round" stroke-linejoin="round" stroke-miterlimit="10" stroke-dasharray="0 13.75" fill="none"/></g><g clip-path="url(#clip6)"><text fill="#595959" font-family="Times New Roman,Times New Roman_MSFontService,sans-serif" font-weight="700" font-size="55" transform="matrix(1 0 0 1 1701.79 1103)">0</text></g><g clip-path="url(#clip7)"><text fill="#595959" font-family="Times New Roman,Times New Roman_MSFontService,sans-serif" font-weight="700" font-size="55" transform="matrix(1 0 0 1 1674.29 996)">10</text></g><g clip-path="url(#clip8)"><text fill="#595959" font-family="Times New Roman,Times New Roman_MSFontService,sans-serif" font-weight="700" font-size="55" transform="matrix(1 0 0 1 1674.29 889)">20</text></g><g clip-path="url(#clip9)"><text fill="#595959" font-family="Times New Roman,Times New Roman_MSFontService,sans-serif" font-weight="700" font-size="55" transform="matrix(1 0 0 1 1674.29 783)">30</text></g><g clip-path="url(#clip10)"><text fill="#595959" font-family="Times New Roman,Times New Roman_MSFontService,sans-serif" font-weight="700" font-size="55" transform="matrix(1 0 0 1 1674.29 676)">40</text></g><g clip-path="url(#clip11)"><text fill="#595959" font-family="Times New Roman,Times New Roman_MSFontService,sans-serif" font-weight="700" font-size="55" transform="matrix(1 0 0 1 1674.29 570)">50</text></g><g clip-path="url(#clip12)"><text fill="#595959" font-family="Times New Roman,Times New Roman_MSFontService,sans-serif" font-weight="700" font-size="55" transform="matrix(1 0 0 1 1674.29 463)">60</text></g><g clip-path="url(#clip13)"><text fill="#595959" font-family="Times New Roman,Times New Roman_MSFontService,sans-serif" font-weight="700" font-size="55" transform="matrix(1 0 0 1 1674.29 357)">70</text></g><g clip-path="url(#clip14)"><text fill="#595959" font-family="Times New Roman,Times New Roman_MSFontService,sans-serif" font-weight="700" font-size="55" transform="matrix(1 0 0 1 1674.29 250)">80</text></g><g clip-path="url(#clip15)"><text fill="#595959" font-family="Times New Roman,Times New Roman_MSFontService,sans-serif" font-weight="700" font-size="55" transform="matrix(1 0 0 1 1762.34 1167)">0</text></g><g clip-path="url(#clip16)"><text fill="#595959" font-family="Times New Roman,Times New Roman_MSFontService,sans-serif" font-weight="700" font-size="55" transform="matrix(1 0 0 1 2110.94 1167)">100</text></g><g clip-path="url(#clip17)"><text fill="#595959" font-family="Times New Roman,Times New Roman_MSFontService,sans-serif" font-weight="700" font-size="55" transform="matrix(1 0 0 1 2487.04 1167)">200</text></g><g clip-path="url(#clip18)"><text fill="#595959" font-family="Times New Roman,Times New Roman_MSFontService,sans-serif" font-weight="700" font-size="55" transform="matrix(1 0 0 1 2863.14 1167)">300</text></g><g clip-path="url(#clip19)"><text fill="#595959" font-family="Times New Roman,Times New Roman_MSFontService,sans-serif" font-weight="700" font-size="55" transform="matrix(1 0 0 1 3239.23 1167)">400</text></g><g clip-path="url(#clip20)"><text fill="#595959" font-family="Times New Roman,Times New Roman_MSFontService,sans-serif" font-weight="700" font-size="55" transform="matrix(1 0 0 1 3615.33 1167)">500</text></g><g clip-path="url(#clip21)"><text fill="#595959" font-family="Times New Roman,Times New Roman_MSFontService,sans-serif" font-weight="700" font-size="55" transform="matrix(6.12323e-17 -1 1 6.12323e-17 1648.28 981)">Velocity Estimation (Km/h)</text></g><g clip-path="url(#clip22)"><text fill="#595959" font-family="Times New Roman,Times New Roman_MSFontService,sans-serif" font-weight="700" font-size="55" transform="matrix(1 0 0 1 2415.38 1244)">Queue Rate (unit/minute)</text></g><g clip-path="url(#clip23)"><text fill="#595959" font-family="Times New Roman,Times New Roman_MSFontService,sans-serif" font-weight="700" font-size="64" transform="matrix(1 0 0 1 2471 159)">Otista Street</text></g><rect x="1540.5" y="65.5002" width="2208" height="1248" stroke="#D9D9D9" stroke-width="3.4375" stroke-linejoin="round" stroke-miterlimit="10" fill="none"/></g></svg>