<svg width="2211" height="1251" xmlns="http://www.w3.org/2000/svg" xmlns:xlink="http://www.w3.org/1999/xlink" overflow="hidden"><defs><clipPath id="clip0"><rect x="1539" y="1423" width="2211" height="1251"/></clipPath><clipPath id="clip1"><rect x="1540" y="1423" width="2208" height="1249"/></clipPath><clipPath id="clip2"><rect x="1540" y="1423" width="2208" height="1249"/></clipPath><clipPath id="clip3"><rect x="1540" y="1423" width="2208" height="1249"/></clipPath><clipPath id="clip4"><rect x="1540" y="1423" width="2208" height="1249"/></clipPath><clipPath id="clip5"><rect x="1776" y="1591" width="1866" height="853"/></clipPath><clipPath id="clip6"><rect x="1540" y="1423" width="2208" height="1249"/></clipPath><clipPath id="clip7"><rect x="1540" y="1423" width="2208" height="1249"/></clipPath><clipPath id="clip8"><rect x="1540" y="1423" width="2208" height="1249"/></clipPath><clipPath id="clip9"><rect x="1540" y="1423" width="2208" height="1249"/></clipPath><clipPath id="clip10"><rect x="1540" y="1423" width="2208" height="1249"/></clipPath><clipPath id="clip11"><rect x="1540" y="1423" width="2208" height="1249"/></clipPath><clipPath id="clip12"><rect x="1540" y="1423" width="2208" height="1249"/></clipPath><clipPath id="clip13"><rect x="1540" y="1423" width="2208" height="1249"/></clipPath><clipPath id="clip14"><rect x="1540" y="1423" width="2208" height="1249"/></clipPath><clipPath id="clip15"><rect x="1540" y="1423" width="2208" height="1249"/></clipPath><clipPath id="clip16"><rect x="1540" y="1423" width="2208" height="1249"/></clipPath><clipPath id="clip17"><rect x="1540" y="1423" width="2208" height="1249"/></clipPath><clipPath id="clip18"><rect x="1540" y="1423" width="2208" height="1249"/></clipPath><clipPath id="clip19"><rect x="1540" y="1423" width="2208" height="1249"/></clipPath><clipPath id="clip20"><rect x="1540" y="1423" width="2208" height="1249"/></clipPath><clipPath id="clip21"><rect x="1540" y="1423" width="2208" height="1249"/></clipPath><clipPath id="clip22"><rect x="1540" y="1423" width="2208" height="1249"/></clipPath></defs><g clip-path="url(#clip0)" transform="translate(-1539 -1423)"><rect x="1540" y="1424" width="2208" height="1248" fill="#FFFFFF"/><g clip-path="url(#clip1)"><path d="M1776.5 2337.58 3642.5 2337.58M1776.5 2231.57 3642.5 2231.57M1776.5 2124.57 3642.5 2124.57M1776.5 2018.57 3642.5 2018.57M1776.5 1911.56 3642.5 1911.56M1776.5 1804.56 3642.5 1804.56M1776.5 1698.56 3642.5 1698.56M1776.5 1591.5 3642.5 1591.5" stroke="#D9D9D9" stroke-width="3.4375" stroke-linejoin="round" stroke-miterlimit="10" fill="none"/></g><g clip-path="url(#clip2)"><path d="M1776.5 1591.5 1776.5 2444.5M2242.57 1591.5 2242.57 2444.5M2709.59 1591.5 2709.59 2444.5M3176.6 1591.5 3176.6 2444.5M3642.5 1591.5 3642.5 2444.5" stroke="#D9D9D9" stroke-width="3.4375" stroke-linejoin="round" stroke-miterlimit="10" fill="none"/></g><g clip-path="url(#clip3)"><path d="M1776.5 2444.5 3642.5 2444.5" stroke="#D9D9D9" stroke-width="3.4375" stroke-linejoin="round" stroke-miterlimit="10" fill="none" fill-rule="evenodd"/></g><g clip-path="url(#clip4)"><path d="M1787.5 1591.03C1787.5 1597.1 1782.57 1602.03 1776.5 1602.03 1770.42 1602.03 1765.5 1597.1 1765.5 1591.03 1765.5 1584.95 1770.42 1580.03 1776.5 1580.03 1782.57 1580.03 1787.5 1584.95 1787.5 1591.03Z" stroke="#FFC000" stroke-width="3.4375" stroke-linejoin="round" stroke-miterlimit="10" fill="#FFC000"/><path d="M1899.5 1965.03C1899.5 1971.1 1894.57 1976.03 1888.5 1976.03 1882.42 1976.03 1877.5 1971.1 1877.5 1965.03 1877.5 1958.95 1882.42 1954.03 1888.5 1954.03 1894.57 1954.03 1899.5 1958.95 1899.5 1965.03Z" stroke="#FFC000" stroke-width="3.4375" stroke-linejoin="round" stroke-miterlimit="10" fill="#FFC000"/><path d="M2011.5 2174.03C2011.5 2180.1 2006.57 2185.03 2000.5 2185.03 1994.42 2185.03 1989.5 2180.1 1989.5 2174.03 1989.5 2167.95 1994.42 2163.03 2000.5 2163.03 2006.57 2163.03 2011.5 2167.95 2011.5 2174.03Z" stroke="#FFC000" stroke-width="3.4375" stroke-linejoin="round" stroke-miterlimit="10" fill="#FFC000"/><path d="M2123.5 2292.03C2123.5 2298.1 2118.57 2303.03 2112.5 2303.03 2106.42 2303.03 2101.5 2298.1 2101.5 2292.03 2101.5 2285.95 2106.42 2281.03 2112.5 2281.03 2118.57 2281.03 2123.5 2285.95 2123.5 2292.03Z" stroke="#FFC000" stroke-width="3.4375" stroke-linejoin="round" stroke-miterlimit="10" fill="#FFC000"/><path d="M2235.5 2359.03C2235.5 2365.1 2230.57 2370.03 2224.5 2370.03 2218.42 2370.03 2213.5 2365.1 2213.5 2359.03 2213.5 2352.95 2218.42 2348.03 2224.5 2348.03 2230.57 2348.03 2235.5 2352.95 2235.5 2359.03Z" stroke="#FFC000" stroke-width="3.4375" stroke-linejoin="round" stroke-miterlimit="10" fill="#FFC000"/><path d="M2347.5 2396.03C2347.5 2402.1 2342.57 2407.03 2336.5 2407.03 2330.42 2407.03 2325.5 2402.1 2325.5 2396.03 2325.5 2389.95 2330.42 2385.03 2336.5 2385.03 2342.57 2385.03 2347.5 2389.95 2347.5 2396.03Z" stroke="#FFC000" stroke-width="3.4375" stroke-linejoin="round" stroke-miterlimit="10" fill="#FFC000"/><path d="M2459.5 2417.03C2459.5 2423.1 2454.57 2428.03 2448.5 2428.03 2442.42 2428.03 2437.5 2423.1 2437.5 2417.03 2437.5 2410.95 2442.42 2406.03 2448.5 2406.03 2454.57 2406.03 2459.5 2410.95 2459.5 2417.03Z" stroke="#FFC000" stroke-width="3.4375" stroke-linejoin="round" stroke-miterlimit="10" fill="#FFC000"/><path d="M2571.5 2429.03C2571.5 2435.1 2566.57 2440.03 2560.5 2440.03 2554.42 2440.03 2549.5 2435.1 2549.5 2429.03 2549.5 2422.95 2554.42 2418.03 2560.5 2418.03 2566.57 2418.03 2571.5 2422.95 2571.5 2429.03Z" stroke="#FFC000" stroke-width="3.4375" stroke-linejoin="round" stroke-miterlimit="10" fill="#FFC000"/><path d="M2683.5 2435.03C2683.5 2441.1 2678.57 2446.03 2672.5 2446.03 2666.42 2446.03 2661.5 2441.1 2661.5 2435.03 2661.5 2428.95 2666.42 2424.03 2672.5 2424.03 2678.57 2424.03 2683.5 2428.95 2683.5 2435.03Z" stroke="#FFC000" stroke-width="3.4375" stroke-linejoin="round" stroke-miterlimit="10" fill="#FFC000"/><path d="M2795.5 2439.03C2795.5 2445.1 2790.57 2450.03 2784.5 2450.03 2778.42 2450.03 2773.5 2445.1 2773.5 2439.03 2773.5 2432.95 2778.42 2428.03 2784.5 2428.03 2790.57 2428.03 2795.5 2432.95 2795.5 2439.03Z" stroke="#FFC000" stroke-width="3.4375" stroke-linejoin="round" stroke-miterlimit="10" fill="#FFC000"/><path d="M2907.5 2441.03C2907.5 2447.1 2902.57 2452.03 2896.5 2452.03 2890.42 2452.03 2885.5 2447.1 2885.5 2441.03 2885.5 2434.95 2890.42 2430.03 2896.5 2430.03 2902.57 2430.03 2907.5 2434.95 2907.5 2441.03Z" stroke="#FFC000" stroke-width="3.4375" stroke-linejoin="round" stroke-miterlimit="10" fill="#FFC000"/><path d="M3019.5 2442.03C3019.5 2448.1 3014.57 2453.03 3008.5 2453.03 3002.42 2453.03 2997.5 2448.1 2997.5 2442.03 2997.5 2435.95 3002.42 2431.03 3008.5 2431.03 3014.57 2431.03 3019.5 2435.95 3019.5 2442.03Z" stroke="#FFC000" stroke-width="3.4375" stroke-linejoin="round" stroke-miterlimit="10" fill="#FFC000"/><path d="M3131.5 2443.03C3131.5 2449.1 3126.57 2454.03 3120.5 2454.03 3114.42 2454.03 3109.5 2449.1 3109.5 2443.03 3109.5 2436.95 3114.42 2432.03 3120.5 2432.03 3126.57 2432.03 3131.5 2436.95 3131.5 2443.03Z" stroke="#FFC000" stroke-width="3.4375" stroke-linejoin="round" stroke-miterlimit="10" fill="#FFC000"/><path d="M3243.5 2443.03C3243.5 2449.1 3238.57 2454.03 3232.5 2454.03 3226.42 2454.03 3221.5 2449.1 3221.5 2443.03 3221.5 2436.95 3226.42 2432.03 3232.5 2432.03 3238.57 2432.03 3243.5 2436.95 3243.5 2443.03Z" stroke="#FFC000" stroke-width="3.4375" stroke-linejoin="round" stroke-miterlimit="10" fill="#FFC000"/><path d="M3355.5 2444.03C3355.5 2450.1 3350.57 2455.03 3344.5 2455.03 3338.42 2455.03 3333.5 2450.1 3333.5 2444.03 3333.5 2437.95 3338.42 2433.03 3344.5 2433.03 3350.57 2433.03 3355.5 2437.95 3355.5 2444.03Z" stroke="#FFC000" stroke-width="3.4375" stroke-linejoin="round" stroke-miterlimit="10" fill="#FFC000"/><path d="M3467.5 2444.03C3467.5 2450.1 3462.57 2455.03 3456.5 2455.03 3450.42 2455.03 3445.5 2450.1 3445.5 2444.03 3445.5 2437.95 3450.42 2433.03 3456.5 2433.03 3462.57 2433.03 3467.5 2437.95 3467.5 2444.03Z" stroke="#FFC000" stroke-width="3.4375" stroke-linejoin="round" stroke-miterlimit="10" fill="#FFC000"/></g><g clip-path="url(#clip5)"><path d="M1776.5 1591.5 1779.56 1605.55 1782.56 1618.55 1785.56 1631.55 1788.56 1644.55 1791.56 1657.55 1794.56 1669.56 1797.56 1681.56 1800.56 1693.56 1803.56 1705.56 1806.56 1717.56 1810.56 1728.56 1813.56 1740.56 1816.56 1751.56 1819.56 1762.56 1822.56 1772.56 1825.56 1783.56 1828.56 1793.56 1831.56 1804.56 1834.56 1814.56 1837.56 1824.56 1841.56 1833.56 1844.56 1843.56 1847.56 1853.56 1850.56 1862.56 1853.56 1871.56 1856.56 1880.56 1859.56 1889.56 1862.56 1898.56 1865.56 1906.56 1868.56 1915.56 1871.56 1923.56 1875.56 1931.56 1878.56 1940.56 1881.56 1948.56 1884.56 1955.56 1887.56 1963.56 1890.56 1971.56 1893.56 1978.57 1896.56 1985.57 1899.56 1993.57 1902.56 2000.57 1905.56 2007.57 1909.56 2014.57 1912.56 2021.57 1915.56 2027.57 1918.56 2034.57 1921.56 2040.57 1924.56 2047.57 1927.56 2053.57 1930.56 2059.57 1933.56 2065.57 1936.56 2071.57 1940.56 2077.57 1943.56 2083.57 1946.56 2088.57 1949.56 2094.57 1952.56 2100.57 1955.56 2105.57 1958.56 2110.57 1961.56 2116.57 1964.56 2121.57 1967.56 2126.57 1970.56 2131.57 1974.56 2136.57 1977.57 2141.57 1980.57 2146.57 1983.57 2150.57 1986.57 2155.57 1989.57 2159.57 1992.57 2164.57 1995.57 2168.57 1998.57 2173.57 2001.57 2177.57 2004.57 2181.57 2008.57 2185.57 2011.57 2189.57 2014.57 2193.57 2017.57 2197.57 2020.57 2201.57 2023.57 2205.57 2026.57 2209.57 2029.57 2213.57 2032.57 2216.57 2035.57 2220.57 2039.57 2223.57 2042.57 2227.57 2045.57 2230.57 2048.57 2234.57 2051.57 2237.57 2054.57 2240.57 2057.57 2243.57 2060.57 2247.57 2063.57 2250.57 2066.57 2253.57 2069.57 2256.57 2073.57 2259.57 2076.57 2262.57 2079.57 2265.57 2082.57 2267.57 2085.57 2270.57 2088.57 2273.57 2091.57 2276.57 2094.57 2278.57 2097.57 2281.58 2100.57 2283.58 2103.57 2286.58 2107.57 2288.58 2110.57 2291.58 2113.57 2293.58 2116.57 2296.58 2119.57 2298.58 2122.57 2300.58 2125.57 2303.58 2128.57 2305.58 2131.57 2307.58 2134.57 2309.58 2138.57 2311.58 2141.57 2313.58 2144.57 2315.58 2147.57 2317.58 2150.57 2319.58 2153.57 2321.58 2156.57 2323.58 2159.57 2325.58 2162.57 2327.58 2165.57 2329.58 2168.57 2331.58 2172.57 2333.58 2175.57 2334.58 2178.57 2336.58 2181.57 2338.58 2184.57 2339.58 2187.57 2341.58 2190.57 2343.58 2193.57 2344.58 2196.57 2346.58 2199.57 2347.58 2202.57 2349.58 2206.57 2350.58 2209.57 2352.58 2212.57 2353.58 2215.57 2355.58 2218.57 2356.58 2221.57 2358.58 2224.57 2359.58 2227.57 2360.58 2230.57 2362.58 2233.57 2363.58 2237.57 2364.58 2240.57 2365.58 2243.57 2367.58 2246.57 2368.58 2249.57 2369.58 2252.57 2370.58 2255.57 2371.58 2258.57 2373.58 2261.57 2374.58 2264.57 2375.58 2267.57 2376.58 2271.57 2377.58 2274.57 2378.58 2277.57 2379.58 2280.57 2380.58 2283.58 2381.58 2286.58 2382.58 2289.58 2383.58 2292.58 2384.58 2295.58 2385.58 2298.58 2386.58 2302.58 2387.58 2305.58 2388.58 2308.58 2389.58 2311.58 2389.58 2314.58 2390.58 2317.58 2391.58 2320.58 2392.58 2323.58 2393.58 2326.58 2394.58 2329.58 2394.58 2332.58 2395.58 2336.58 2396.58 2339.58 2397.58 2342.58 2397.58 2345.58 2398.58 2348.58 2399.58 2351.58 2400.58 2354.58 2400.58 2357.58 2401.58 2360.58 2402.58 2363.58 2402.58 2366.58 2403.58 2370.58 2404.58 2373.58 2404.58 2376.58 2405.58 2379.58 2405.58 2382.58 2406.58 2385.58 2407.58 2388.58 2407.58 2391.58 2408.58 2394.58 2408.58 2397.58 2409.58 2401.58 2409.58 2404.58 2410.58 2407.58 2411.58 2410.58 2411.58 2413.58 2412.58 2416.58 2412.58 2419.58 2413.58 2422.58 2413.58 2425.58 2414.58 2428.58 2414.58 2431.58 2415.58 2435.58 2415.58 2438.58 2415.58 2441.58 2416.58 2444.58 2416.58 2447.58 2417.58 2450.58 2417.58 2453.58 2418.58 2456.58 2418.58 2459.58 2418.58 2462.58 2419.58 2465.58 2419.58 2469.58 2420.58 2472.58 2420.58 2475.58 2420.58 2478.58 2421.58 2481.58 2421.58 2484.58 2421.58 2487.58 2422.58 2490.58 2422.58 2493.58 2422.58 2496.58 2423.58 2500.58 2423.58 2503.58 2423.58 2506.58 2424.58 2509.58 2424.58 2512.58 2424.58 2515.58 2425.58 2518.58 2425.58 2521.58 2425.58 2524.58 2426.58 2527.58 2426.58 2530.58 2426.58 2534.58 2426.58 2537.58 2427.58 2540.58 2427.58 2543.58 2427.58 2546.58 2428.58 2549.58 2428.58 2552.58 2428.58 2555.58 2428.58 2558.58 2429.58 2561.58 2429.58 2564.58 2429.58 2568.58 2429.58 2571.58 2429.58 2574.58 2430.58 2577.58 2430.58 2580.58 2430.58 2583.58 2430.58 2586.58 2431.58 2589.59 2431.58 2592.59 2431.58 2595.59 2431.58 2599.59 2431.58 2602.59 2432.58 2605.59 2432.58 2608.59 2432.58 2611.59 2432.58 2614.59 2432.58 2617.59 2432.58 2620.59 2433.58 2623.59 2433.58 2626.59 2433.58 2629.59 2433.58 2633.59 2433.58 2636.59 2434.58 2639.59 2434.58 2642.59 2434.58 2645.59 2434.58 2648.59 2434.58 2651.59 2434.58 2654.59 2434.58 2657.59 2435.58 2660.59 2435.58 2663.59 2435.58 2667.59 2435.58 2670.59 2435.58 2673.59 2435.58 2676.59 2435.58 2679.59 2436.58 2682.59 2436.58 2685.59 2436.58 2688.59 2436.58 2691.59 2436.58 2694.59 2436.58 2698.59 2436.58 2701.59 2436.58 2704.59 2437.58 2707.59 2437.58 2710.59 2437.58 2713.59 2437.58 2716.59 2437.58 2719.59 2437.58 2722.59 2437.58 2725.59 2437.58 2728.59 2437.58 2732.59 2437.58 2735.59 2438.58 2738.59 2438.58 2741.59 2438.58 2744.59 2438.58 2747.59 2438.58 2750.59 2438.58 2753.59 2438.58 2756.59 2438.58 2759.59 2438.58 2763.59 2438.58 2766.59 2438.58 2769.59 2439.58 2772.59 2439.58 2775.59 2439.58 2778.59 2439.58 2781.59 2439.58 2784.59 2439.58 2787.59 2439.58 2790.59 2439.58 2793.59 2439.58 2797.59 2439.58 2800.59 2439.58 2803.59 2439.58 2806.59 2439.58 2809.59 2440.58 2812.59 2440.58 2815.59 2440.58 2818.59 2440.58 2821.59 2440.58 2824.59 2440.58 2827.59 2440.58 2831.59 2440.58 2834.59 2440.58 2837.59 2440.58 2840.59 2440.58 2843.59 2440.58 2846.59 2440.58 2849.59 2440.58 2852.59 2440.58 2855.59 2440.58 2858.59 2440.58 2862.59 2441.58 2865.59 2441.58 2868.59 2441.58 2871.59 2441.58 2874.59 2441.58 2877.59 2441.58 2880.59 2441.58 2883.59 2441.58 2886.59 2441.58 2889.59 2441.58 2892.6 2441.58 2896.6 2441.58 2899.6 2441.58 2902.6 2441.58 2905.6 2441.58 2908.6 2441.58 2911.6 2441.58 2914.6 2441.58 2917.6 2441.58 2920.6 2441.58 2923.6 2441.58 2926.6 2441.58 2930.6 2441.58 2933.6 2442.58 2936.6 2442.58 2939.6 2442.58 2942.6 2442.58 2945.6 2442.58 2948.6 2442.58 2951.6 2442.58 2954.6 2442.58 2957.6 2442.58 2961.6 2442.58 2964.6 2442.58 2967.6 2442.58 2970.6 2442.58 2973.6 2442.58 2976.6 2442.58 2979.6 2442.58 2982.6 2442.58 2985.6 2442.58 2988.6 2442.58 2991.6 2442.58 2995.6 2442.58 2998.6 2442.58 3001.6 2442.58 3004.6 2442.58 3007.6 2442.58 3010.6 2442.58 3013.6 2442.58 3016.6 2442.58 3019.6 2442.58 3022.6 2442.58 3025.6 2442.58 3029.6 2442.58 3032.6 2442.58 3035.6 2442.58 3038.6 2442.58 3041.6 2442.58 3044.6 2442.58 3047.6 2442.58 3050.6 2443.58 3053.6 2443.58 3056.6 2443.58 3060.6 2443.58 3063.6 2443.58 3066.6 2443.58 3069.6 2443.58 3072.6 2443.58 3075.6 2443.58 3078.6 2443.58 3081.6 2443.58 3084.6 2443.58 3087.6 2443.58 3090.6 2443.58 3094.6 2443.58 3097.6 2443.58 3100.6 2443.58 3103.6 2443.58 3106.6 2443.58 3109.6 2443.58 3112.6 2443.58 3115.6 2443.58 3118.6 2443.58 3121.6 2443.58 3124.6 2443.58 3128.6 2443.58 3131.6 2443.58 3134.6 2443.58 3137.6 2443.58 3140.6 2443.58 3143.6 2443.58 3146.6 2443.58 3149.6 2443.58 3152.6 2443.58 3155.6 2443.58 3159.6 2443.58 3162.6 2443.58 3165.6 2443.58 3168.6 2443.58 3171.6 2443.58 3174.6 2443.58 3177.6 2443.58 3180.6 2443.58 3183.6 2443.58 3186.6 2443.58 3189.6 2443.58 3193.6 2443.58 3196.6 2443.58 3199.6 2443.58 3202.61 2443.58 3205.61 2443.58 3208.61 2443.58 3211.61 2443.58 3214.61 2443.58 3217.61 2443.58 3220.61 2443.58 3223.61 2443.58 3227.61 2443.58 3230.61 2443.58 3233.61 2443.58 3236.61 2443.58 3239.61 2443.58 3242.61 2443.58 3245.61 2443.58 3248.61 2443.58 3251.61 2443.58 3254.61 2443.58 3258.61 2443.58 3261.61 2443.58 3264.61 2443.58 3267.61 2443.58 3270.61 2443.58 3273.61 2443.58 3276.61 2443.58 3279.61 2443.58 3282.61 2443.58 3285.61 2443.58 3288.61 2443.58 3292.61 2443.58 3295.61 2443.58 3298.61 2443.58 3301.61 2443.58 3304.61 2443.58 3307.61 2443.58 3310.61 2443.58 3313.61 2443.58 3316.61 2443.58 3319.61 2443.58 3323.61 2443.58 3326.61 2443.58 3329.61 2443.58 3332.61 2443.58 3335.61 2443.58 3338.61 2443.58 3341.61 2443.58 3344.61 2443.58 3347.61 2443.58 3350.61 2443.58 3353.61 2443.58 3357.61 2443.58 3360.61 2443.58 3363.61 2443.58 3366.61 2443.58 3369.61 2443.58 3372.61 2443.58 3375.61 2443.58 3378.61 2444.58 3381.61 2444.58 3384.61 2444.58 3387.61 2444.58 3391.61 2444.58 3394.61 2444.58 3397.61 2444.58 3400.61 2444.58 3403.61 2444.58 3406.61 2444.58 3409.61 2444.58 3412.61 2444.58 3415.61 2444.58 3418.61 2444.58 3422.61 2444.58 3425.61 2444.58 3428.61 2444.58 3431.61 2444.58 3434.61 2444.58 3437.61 2444.58 3440.61 2444.58 3443.61 2444.58 3446.61 2444.58 3449.61 2444.58 3452.61 2444.58 3456.5 2444.5" stroke="#FFC000" stroke-width="6.875" stroke-linecap="round" stroke-linejoin="round" stroke-miterlimit="10" stroke-dasharray="0 13.75" fill="none"/></g><g clip-path="url(#clip6)"><text fill="#595959" font-family="Times New Roman,Times New Roman_MSFontService,sans-serif" font-weight="700" font-size="55" transform="matrix(1 0 0 1 1701.79 2461)">0</text></g><g clip-path="url(#clip7)"><text fill="#595959" font-family="Times New Roman,Times New Roman_MSFontService,sans-serif" font-weight="700" font-size="55" transform="matrix(1 0 0 1 1674.29 2355)">10</text></g><g clip-path="url(#clip8)"><text fill="#595959" font-family="Times New Roman,Times New Roman_MSFontService,sans-serif" font-weight="700" font-size="55" transform="matrix(1 0 0 1 1674.29 2248)">20</text></g><g clip-path="url(#clip9)"><text fill="#595959" font-family="Times New Roman,Times New Roman_MSFontService,sans-serif" font-weight="700" font-size="55" transform="matrix(1 0 0 1 1674.29 2142)">30</text></g><g clip-path="url(#clip10)"><text fill="#595959" font-family="Times New Roman,Times New Roman_MSFontService,sans-serif" font-weight="700" font-size="55" transform="matrix(1 0 0 1 1674.29 2035)">40</text></g><g clip-path="url(#clip11)"><text fill="#595959" font-family="Times New Roman,Times New Roman_MSFontService,sans-serif" font-weight="700" font-size="55" transform="matrix(1 0 0 1 1674.29 1929)">50</text></g><g clip-path="url(#clip12)"><text fill="#595959" font-family="Times New Roman,Times New Roman_MSFontService,sans-serif" font-weight="700" font-size="55" transform="matrix(1 0 0 1 1674.29 1822)">60</text></g><g clip-path="url(#clip13)"><text fill="#595959" font-family="Times New Roman,Times New Roman_MSFontService,sans-serif" font-weight="700" font-size="55" transform="matrix(1 0 0 1 1674.29 1716)">70</text></g><g clip-path="url(#clip14)"><text fill="#595959" font-family="Times New Roman,Times New Roman_MSFontService,sans-serif" font-weight="700" font-size="55" transform="matrix(1 0 0 1 1674.29 1609)">80</text></g><g clip-path="url(#clip15)"><text fill="#595959" font-family="Times New Roman,Times New Roman_MSFontService,sans-serif" font-weight="700" font-size="55" transform="matrix(1 0 0 1 1762.34 2526)">0</text></g><g clip-path="url(#clip16)"><text fill="#595959" font-family="Times New Roman,Times New Roman_MSFontService,sans-serif" font-weight="700" font-size="55" transform="matrix(1 0 0 1 2201.52 2526)">500</text></g><g clip-path="url(#clip17)"><text fill="#595959" font-family="Times New Roman,Times New Roman_MSFontService,sans-serif" font-weight="700" font-size="55" transform="matrix(1 0 0 1 2654.46 2526)">1000</text></g><g clip-path="url(#clip18)"><text fill="#595959" font-family="Times New Roman,Times New Roman_MSFontService,sans-serif" font-weight="700" font-size="55" transform="matrix(1 0 0 1 3121.15 2526)">1500</text></g><g clip-path="url(#clip19)"><text fill="#595959" font-family="Times New Roman,Times New Roman_MSFontService,sans-serif" font-weight="700" font-size="55" transform="matrix(1 0 0 1 3587.83 2526)">2000</text></g><g clip-path="url(#clip20)"><text fill="#595959" font-family="Times New Roman,Times New Roman_MSFontService,sans-serif" font-weight="700" font-size="55" transform="matrix(6.12323e-17 -1 1 6.12323e-17 1648.28 2339)">Velocity Estimation (Km/h)</text></g><g clip-path="url(#clip21)"><text fill="#595959" font-family="Times New Roman,Times New Roman_MSFontService,sans-serif" font-weight="700" font-size="55" transform="matrix(1 0 0 1 2408.51 2603)">Queue Rate (unit/minute)</text></g><g clip-path="url(#clip22)"><text fill="#595959" font-family="Times New Roman,Times New Roman_MSFontService,sans-serif" font-weight="700" font-size="64" transform="matrix(1 0 0 1 2367.55 1518)">Sp. Pahlawan Street</text></g><rect x="1540.5" y="1424.5" width="2208" height="1248" stroke="#D9D9D9" stroke-width="3.4375" stroke-linejoin="round" stroke-miterlimit="10" fill="none"/></g></svg>